<?xml version="1.0" standalone="no"?>
<!DOCTYPE svg PUBLIC "-//W3C//DTD SVG 20010904//EN"
 "http://www.w3.org/TR/2001/REC-SVG-20010904/DTD/svg10.dtd">
<svg version="1.0" xmlns="http://www.w3.org/2000/svg"
 width="21.000000pt" height="23.000000pt" viewBox="0 0 21.000000 23.000000"
 preserveAspectRatio="xMidYMid meet">

<g transform="translate(0.000000,23.000000) scale(0.100000,-0.100000)"
fill="#000000" stroke="none">
<path d="M38 191 c-28 -25 -33 -36 -33 -76 0 -40 5 -51 33 -76 35 -31 86 -38
136 -19 23 8 26 15 26 55 0 38 -3 45 -19 45 -15 0 -21 -8 -23 -32 -3 -29 -7
-33 -35 -36 -59 -6 -93 55 -57 106 16 23 66 30 94 12 14 -9 40 4 40 20 0 13
-51 30 -90 30 -30 0 -48 -7 -72 -29z"/>
</g>
</svg>
